<?xml version="1.0" encoding="UTF-8" standalone="no"?>
<!DOCTYPE svg PUBLIC "-//W3C//DTD SVG 1.1//EN" "http://www.w3.org/Graphics/SVG/1.1/DTD/svg11.dtd">
<svg width="100%" height="100%" viewBox="0 0 16 121" version="1.1" xmlns="http://www.w3.org/2000/svg" xmlns:xlink="http://www.w3.org/1999/xlink" xml:space="preserve" xmlns:serif="http://www.serif.com/" style="fill-rule:evenodd;clip-rule:evenodd;stroke-linejoin:round;stroke-miterlimit:2;">
    <path d="M5.698,14.129L2.166,14.129C1.404,14.129 0.701,13.723 0.32,13.064C-0.061,12.404 -0.061,11.591 0.32,10.932C1.936,8.133 4.271,4.088 5.887,1.29C6.268,0.63 6.971,0.224 7.733,0.224C8.494,0.224 9.198,0.63 9.579,1.29C11.195,4.088 13.53,8.133 15.146,10.932C15.527,11.591 15.527,12.404 15.146,13.064C14.765,13.723 14.061,14.129 13.3,14.129L9.768,14.129L9.768,118.648C9.768,119.771 8.856,120.683 7.733,120.683C6.61,120.683 5.698,119.771 5.698,118.648L5.698,14.129Z" style="fill:white;"/>
</svg>
